HIERARCHY
ROOT root
{
	OFFSET	0	13.1	24.9
	CHANNELS 6  Xposition Yposition Zposition Xrotation Yrotation Zrotation
	JOINT spine_1
	{
		OFFSET	0	9.99999	0
		CHANNELS 3  Xrotation Yrotation Zrotation
		JOINT spine_2
		{
			OFFSET	0	112	-10
			CHANNELS 3  Xrotation Yrotation Zrotation
			JOINT spine_3
			{
				OFFSET	0	206.5	19.3
				CHANNELS 3  Xrotation Yrotation Zrotation
				JOINT spine_4
				{
					OFFSET	0	110.4	14.6
					CHANNELS 3  Xrotation Yrotation Zrotation
					JOINT neck_1
					{
						OFFSET	0	71.8	-50.3
						CHANNELS 3  Xrotation Yrotation Zrotation
						JOINT neck_2
						{
							OFFSET	0	86.2	-25.8
							CHANNELS 3  Xrotation Yrotation Zrotation
							JOINT head_ee
							{
								OFFSET	0	179.8	-8.7
								CHANNELS 3  Xrotation Yrotation Zrotation
								End Site
								{
									OFFSET	1	0	0
								}
							}
						}
					}
					JOINT left_clavicle
					{
						OFFSET	-43.2	22.4	-70.8
						CHANNELS 3  Xrotation Yrotation Zrotation
						JOINT left_shoulder
						{
							OFFSET	-93.9	-5.79999	48.7
							CHANNELS 3  Xrotation Yrotation Zrotation
							JOINT left_elbow
							{
								OFFSET	-291.4	-30.8	15.2
								CHANNELS 3  Xrotation Yrotation Zrotation
								JOINT left_lowarm_twist
								{
									OFFSET	-110.7	-3.89999	13.6
									CHANNELS 3  Xrotation Yrotation Zrotation
									JOINT left_hand
									{
										OFFSET	-110.7	-3.89999	13.6
										CHANNELS 3  Xrotation Yrotation Zrotation
										JOINT left_ee
										{
											OFFSET	-80.8	-5.10001	12.1
											CHANNELS 3  Xrotation Yrotation Zrotation
											End Site
											{
												OFFSET	1	0	0
											}
										}
									}
								}
							}
						}
					}
					JOINT right_clavicle
					{
						OFFSET	43.2	22.4	-70.8
						CHANNELS 3  Xrotation Yrotation Zrotation
						JOINT right_shoulder
						{
							OFFSET	93.9	-5.79999	48.7
							CHANNELS 3  Xrotation Yrotation Zrotation
							JOINT right_elbow
							{
								OFFSET	291.4	-30.8	15.2
								CHANNELS 3  Xrotation Yrotation Zrotation
								JOINT right_lowarm_twist
								{
									OFFSET	110.7	-3.89999	13.6
									CHANNELS 3  Xrotation Yrotation Zrotation
									JOINT right_hand
									{
										OFFSET	110.7	-3.89999	13.6
										CHANNELS 3  Xrotation Yrotation Zrotation
										JOINT right_ee
										{
											OFFSET	80.8	-5.10001	12.1
											CHANNELS 3  Xrotation Yrotation Zrotation
											End Site
											{
												OFFSET	1	0	0
											}
										}
									}
								}
							}
						}
					}
				}
			}
		}
	}
	JOINT left_hip
	{
		OFFSET	-82.8	-127.5	0.300001
		CHANNELS 3  Xrotation Yrotation Zrotation
		JOINT left_knee
		{
			OFFSET	-28.2	-396.7	2.2
			CHANNELS 3  Xrotation Yrotation Zrotation
			JOINT left_ankle
			{
				OFFSET	-11.7	-411.3	35.4
				CHANNELS 3  Xrotation Yrotation Zrotation
				JOINT left_toes
				{
					OFFSET	0	-60	-88.6
					CHANNELS 3  Xrotation Yrotation Zrotation
					JOINT left_foot_ee
					{
						OFFSET	-22.5	-16.5	-42.2
						CHANNELS 3  Xrotation Yrotation Zrotation
						End Site
						{
							OFFSET	1	0	0
						}
					}
				}
			}
		}
	}
	JOINT right_hip
	{
		OFFSET	82.8	-127.5	0.300001
		CHANNELS 3  Xrotation Yrotation Zrotation
		JOINT right_knee
		{
			OFFSET	28.2	-396.7	2.2
			CHANNELS 3  Xrotation Yrotation Zrotation
			JOINT right_ankle
			{
				OFFSET	11.7	-411.3	35.4
				CHANNELS 3  Xrotation Yrotation Zrotation
				JOINT right_toes
				{
					OFFSET	0	-60	-88.6
					CHANNELS 3  Xrotation Yrotation Zrotation
					JOINT right_foot_ee
					{
						OFFSET	22.5	-16.5	-42.2
						CHANNELS 3  Xrotation Yrotation Zrotation
						End Site
						{
							OFFSET	1	0	0
						}
					}
				}
			}
		}
	}
}
MOTION
Frames: 5
Frame Time: 0.02
1724.68 695.254 -1519.28 -21.4025 76.0994 23.5683 2.19729 -0.0995317 -1.10435 2.19797 -0.0290615 -1.10845 2.19846 0.162619 -1.09684 2.19678 -0.0126364 -1.10876 -8.01588 14.9701 6.86851 -7.96353 23.1617 10.057 -0.0 0.0 -0.0 1.89109 23.3082 5.29688 -0.609194 -23.3441 70.714 3.41554 -59.4014 1.94864 -65.3419 -5.95359 5.23619 0.886833 3.9477 7.52491 -0.0 0.0 -0.0 10.4607 -14.5596 -19.1062 -18.8742 -2.01518 -57.5571 0.24152 6.82271 -0.014397 -44.2199 3.41071 -4.347 -5.73317 -28.6432 20.2694 0.0 0.0 0.0 -0.670954 13.2073 -8.59739 3.41755 -0.155746 -0.501174 22.6788 -11.2366 -3.21592 -13.4546 0.0 0.0 -0.0 0.0 -0.0 13.7816 10.6852 -6.94789 -9.46603 -0.272501 -1.42553 20.5796 -5.12979 2.80389 -12.9093 0.0 0.0 0.0 0.0 0.0 
1715.69 694.423 -1525.69 -22.5372 76.6249 24.8031 2.37903 0.00791941 -1.04811 2.37964 0.0745937 -1.04548 2.37817 0.250679 -1.01773 2.37673 0.0868114 -1.04454 -8.01212 15.2166 6.5037 -7.97719 23.8827 9.75721 -0.0 0.0 -0.0 1.60022 22.823 4.86576 -1.81795 -23.7183 70.906 3.55139 -60.37 2.06615 -65.216 -5.93764 5.23373 0.993448 2.93017 7.83107 -0.0 0.0 -0.0 10.6014 -15.1107 -19.2707 -18.29 -1.83847 -57.806 0.233233 6.59071 -0.0134292 -43.8066 3.36479 -4.32046 -5.60626 -28.5977 19.5639 0.0 0.0 0.0 0.0774754 14.5334 -9.47985 2.36118 -0.10441 -0.347243 21.1337 -11.4447 -3.0254 -13.3622 0.0 0.0 -0.0 0.0 -0.0 13.731 11.0464 -6.9965 -11.8133 -0.303355 -1.78436 18.7976 -3.96607 2.58472 -14.0201 0.0 0.0 0.0 0.0 0.0 
1710.13 695.782 -1529.87 -24.7018 76.4642 26.7386 2.50746 0.212037 -1.04958 2.50803 0.278391 -1.03396 2.50283 0.447489 -0.972804 2.50163 0.288245 -1.03126 -8.55954 15.0994 6.23468 -8.56615 23.9728 9.57669 -0.0 0.0 -0.0 1.72077 23.3677 5.06575 -1.64096 -23.9398 71.6096 3.354 -58.9435 1.89579 -65.7253 -6.00213 5.24345 1.02525 2.30204 7.793 -0.0 0.0 -0.0 10.8236 -14.9501 -19.6896 -18.4169 -1.09652 -57.929 0.191753 5.42632 -0.00908707 -44.2668 3.41593 -4.34999 -5.29233 -28.592 17.7513 0.0 0.0 0.0 3.53843 12.9716 -10.3261 -1.58336 0.0619488 0.235086 21.2797 -14.1985 -3.09696 -12.9075 0.0 0.0 -0.0 0.0 -0.0 12.5297 12.5348 -6.94705 -8.15478 -0.248872 -1.22571 21.8522 -4.66916 2.95999 -15.1466 0.0 0.0 0.0 0.0 0.0 
1702.38 690.967 -1540.24 -29.0774 77.7925 31.0343 2.60791 0.075687 -1.03996 2.6085 0.141705 -1.03304 2.60579 0.310768 -0.995328 2.60444 0.149683 -1.03191 -8.5961 15.9663 5.90099 -8.63513 25.8488 9.46935 -0.0 0.0 -0.0 1.39012 22.5821 4.55693 -1.97866 -23.8279 72.0195 3.19349 -57.6892 1.7592 -65.0505 -5.9167 5.23045 1.17245 1.8728 8.6093 -0.0 0.0 -0.0 10.9773 -15.7418 -19.8299 -17.3662 0.0331059 -58.401 0.195748 5.53867 -0.00946873 -44.4483 3.43618 -4.36152 -5.43061 -28.7283 18.443 0.0 0.0 0.0 3.12355 12.9091 -10.5193 0.709226 -0.0298538 -0.104739 21.2231 -16.1282 -3.13218 -13.4753 0.0 0.0 -0.0 0.0 -0.0 12.4652 13.3486 -6.85756 -9.8386 -0.278379 -1.4824 24.2592 -1.4615 3.25808 -15.0349 0.0 0.0 0.0 0.0 0.0 
1694.99 688.951 -1542.36 -33.3226 78.8605 35.0222 2.78731 -0.0836459 -0.992529 2.78786 -0.0203224 -0.99584 2.78807 0.141657 -0.985923 2.78671 -0.015821 -0.995921 -8.80951 15.9398 6.02743 -8.85825 25.7579 9.63181 -0.0 0.0 -0.0 1.30866 22.4984 4.43715 -2.3942 -24.1534 72.3888 2.98794 -55.9453 1.58715 -64.8636 -5.89306 5.22667 1.32655 1.48039 9.49064 -0.0 0.0 -0.0 11.0997 -15.8205 -20.0319 -16.7068 0.751993 -58.4362 0.20521 5.80462 -0.0104038 -44.4511 3.43649 -4.3617 -5.32161 -28.8822 17.6981 0.0 0.0 0.0 3.71953 12.6732 -10.8017 -1.27956 0.0505673 0.189851 22.9432 -17.6765 -3.39377 -13.0504 0.0 0.0 -0.0 0.0 -0.0 12.0472 12.9175 -6.64596 -9.70937 -0.276382 -1.46267 26.4833 -1.24559 3.51544 -15.4092 0.0 0.0 0.0 0.0 0.0 
